<svg xmlns:dc="http://purl.org/dc/elements/1.1/" xmlns:cc="http://creativecommons.org/ns#" xmlns:rdf="http://www.w3.org/1999/02/22-rdf-syntax-ns#" xmlns:svg="http://www.w3.org/2000/svg" xmlns="http://www.w3.org/2000/svg" xmlns:sodipodi="http://sodipodi.sourceforge.net/DTD/sodipodi-0.dtd" xmlns:inkscape="http://www.inkscape.org/namespaces/inkscape" version="1.1" viewBox="0 0 16.933333 21.1666675" x="0px" y="0px"><g><g style="" transform="translate(10.999228,-282.84666)" display="inline"><g><path d="m -5.1716774,282.84669 v 10e-4 a 0.52916504,0.529083 0 0 0 -0.024805,5.2e-4 h -2.0985798 c -2.0394864,0 -3.7041668,1.66438 -3.7041668,3.70356 v 2.11661 a 0.52921827,0.52913621 0 0 0 0.529167,0.52864 h 2.1166664 v 4.1242 l -1.5446087,3.60383 a 0.52921827,0.52913621 0 0 0 0.1555462,0.62165 l 2.635498,2.10835 a 0.52916504,0.529083 0 0 0 0.1896525,0.10284 0.52916504,0.529083 0 0 0 0.014986,0.004 0.52921827,0.52913621 0 0 0 0.00258,0.001 0.52916504,0.529083 0 0 0 0.1529622,0.0165 h 8.4232588 a 0.52916504,0.529083 0 0 0 0.1756997,-0.0212 0.52916504,0.529083 0 0 0 0.090951,-0.0372 0.52921827,0.52913621 0 0 0 0.024288,-0.0129 0.52916504,0.529083 0 0 0 0.029972,-0.0191 0.52921827,0.52913621 0 0 0 0.022221,-0.0155 0.52916504,0.529083 0 0 0 0.0031,-0.003 0.52921827,0.52913621 0 0 0 0.00879,-0.007 0.52916504,0.529083 0 0 0 0.01757,-0.014 l 2.6282645,-2.10215 a 0.52921827,0.52913621 0 0 0 0.1555459,-0.62166 L 3.288272,293.32186 v -4.1242 h 2.1166678 a 0.52921827,0.52913621 0 0 0 0.5291667,-0.52916 v -2.11661 c 0,-2.03917 -1.664682,-3.70356 -3.7041679,-3.70356 H 0.11792247 a 0.52916504,0.529083 0 0 0 -0.0118856,0 0.52916504,0.529083 0 0 0 -0.01446953,5.1e-4 0.52921827,0.52913621 0 0 0 -0.04134115,0.004 0.52916504,0.529083 0 0 0 -0.08371575,0.017 0.52921827,0.52913621 0 0 0 -0.0082682,0.002 0.52916504,0.529083 0 0 0 -0.006201,0.002 0.52921827,0.52913621 0 0 0 -0.02377123,0.008 0.52916504,0.529083 0 0 0 -0.04805918,0.0212 0.52921827,0.52913621 0 0 0 -0.0134358,0.007 0.52916504,0.529083 0 0 0 -0.00155,0.001 0.52921827,0.52913621 0 0 0 -0.0217043,0.0124 0.52916504,0.529083 0 0 0 -0.0134358,0.008 0.52921827,0.52913621 0 0 0 -0.0434081,0.0305 0.52916504,0.529083 0 0 0 -5.1673e-4,5.1e-4 0.52916504,0.529083 0 0 0 -0.002067,0.002 0.52921827,0.52913621 0 0 0 -0.021704,0.0181 0.52916504,0.529083 0 0 0 -5.1673e-4,5.2e-4 0.52916504,0.529083 0 0 0 -0.00155,10e-4 0.52921827,0.52913621 0 0 0 -0.17621647,0.39428 c 0,1.17508 -0.9413954,2.11662 -2.1166667,2.11662 -1.1752715,0 -2.1166667,-0.94154 -2.1166667,-2.11662 a 0.52921827,0.52913621 0 0 0 -0.031006,-0.17777 0.52916504,0.529083 0 0 0 -0.00258,-0.007 0.52921827,0.52913621 0 0 0 0,-5.2e-4 0.52916504,0.529083 0 0 0 -0.011885,-0.0289 0.52921827,0.52913621 0 0 0 -0.036174,-0.0677 0.52916504,0.529083 0 0 0 -0.0093,-0.0145 0.52921827,0.52913621 0 0 0 -0.013953,-0.0196 0.52916504,0.529083 0 0 0 -0.00465,-0.006 0.52921827,0.52913621 0 0 0 -0.014986,-0.0186 0.52916504,0.529083 0 0 0 -5.168e-4,-5.1e-4 0.52916504,0.529083 0 0 0 -0.00413,-0.005 0.52921827,0.52913621 0 0 0 -0.038757,-0.0398 0.52916504,0.529083 0 0 0 -0.00517,-0.005 0.52921827,0.52913621 0 0 0 -0.018087,-0.016 0.52916504,0.529083 0 0 0 -0.00568,-0.005 0.52921827,0.52913621 0 0 0 -0.01912,-0.0145 0.52916504,0.529083 0 0 0 -0.0062,-0.004 0.52921827,0.52913621 0 0 0 -0.020154,-0.0145 0.52916504,0.529083 0 0 0 -0.00568,-0.004 0.52921827,0.52913621 0 0 0 -0.021187,-0.0124 0.52916504,0.529083 0 0 0 -0.0062,-0.004 0.52921827,0.52913621 0 0 0 -0.021187,-0.0114 0.52916504,0.529083 0 0 0 -0.00672,-0.003 0.52921827,0.52913621 0 0 0 -0.00568,-0.003 0.52916504,0.529083 0 0 0 -0.05271,-0.0207 0.52921827,0.52913621 0 0 0 -0.0062,-0.002 0.52916504,0.529083 0 0 0 -0.023771,-0.007 0.52921827,0.52913621 0 0 0 -0.0062,-0.002 0.52916504,0.529083 0 0 0 -0.024805,-0.006 0.52921827,0.52913621 0 0 0 -0.00568,-0.001 0.52916504,0.529083 0 0 0 -0.094051,-0.0103 z m -2.1233845,1.05985 h 1.4040485 c -0.4265612,1.4922 -0.7228067,2.83532 -2.1497396,4.23272 h -1.9001423 v -1.58746 c 0,-1.46728 1.1783113,-2.64526 2.6458334,-2.64526 z m 8.11940125,0 H 2.2299383 c 1.4675219,0 2.6458345,1.17798 2.6458345,2.64526 v 1.58746 H 2.9756292 c -1.427025,-1.3974 -1.72436,-2.74052 -2.15128985,-4.23272 z m -0.75550953,1.19525 c 0.19955193,0.66887 0.43990552,1.35757 0.8278564,2.05306 l -3.36310212,2.20859 -3.460254,-2.27267 c 0.3673041,-0.67365 0.5993162,-1.34028 0.7927163,-1.98847 0.5517888,0.86705 1.4969101,1.4495 2.6013918,1.4495 1.1047037,0 2.04965148,-0.58266 2.60139162,-1.45001 z m -6.56394062,2.88038 3.0659629,2.0143 -3.865914,2.53984 v -3.64725 c 0.3065555,-0.30149 0.5734865,-0.60375 0.7999511,-0.90689 z m 7.9695396,0.0568 c 0.2165001,0.28414 0.4681636,0.56745 0.7555095,0.85005 v 3.5594 l -3.7341392,-2.45251 z m -3.9413617,2.58996 3.8597129,2.53622 -1.35082206,0.26975 a 0.52916504,0.529083 0 0 0 -0.06459537,0.0129 l -2.50785747,0.50176 -2.513025,-0.50228 a 0.52916504,0.529083 0 0 0 -0.064595,-0.0129 l -1.2485027,-0.2496 z m 4.9092613,3.40436 1.2593548,2.93825 -1.719275,1.3756 -1.19527589,-3.98261 z m -9.9497806,5.2e-4 1.6551963,0.33072 -1.1952761,3.98261 -1.7192747,-1.3756 z m 2.69751,0.53897 1.7482137,0.34984 v 3.79813 h -2.9925823 z m 4.55476088,5.2e-4 1.24436826,4.14745 H -2.0033951 v -3.79761 z" style="color:#000000;font-style:normal;font-variant:normal;font-weight:normal;font-stretch:normal;font-size:medium;line-height:normal;font-family:sans-serif;font-variant-ligatures:normal;font-variant-position:normal;font-variant-caps:normal;font-variant-numeric:normal;font-variant-alternates:normal;font-variant-east-asian:normal;font-feature-settings:normal;font-variation-settings:normal;text-indent:0;text-align:start;text-decoration:none;text-decoration-line:none;text-decoration-style:solid;text-decoration-color:#000000;letter-spacing:normal;word-spacing:normal;text-transform:none;writing-mode:lr-tb;direction:ltr;text-orientation:mixed;dominant-baseline:auto;baseline-shift:baseline;text-anchor:start;white-space:normal;shape-padding:0;shape-margin:0;inline-size:0;clip-rule:nonzero;display:inline;overflow:visible;visibility:visible;opacity:1;isolation:auto;mix-blend-mode:normal;color-interpolation:sRGB;color-interpolation-filters:linearRGB;solid-color:#000000;solid-opacity:1;vector-effect:none;fill:#000000;fill-opacity:1;fill-rule:evenodd;stroke:none;stroke-width:1.05833;stroke-linecap:round;stroke-linejoin:round;stroke-miterlimit:4;stroke-dasharray:none;stroke-dashoffset:0;stroke-opacity:1;color-rendering:auto;image-rendering:auto;shape-rendering:auto;text-rendering:auto;enable-background:accumulate;stop-color:#000000;stop-opacity:1"/></g></g></g><text x="0" y="31.933334" fill="#000000" font-size="5px" font-weight="bold" font-family="'Helvetica Neue', Helvetica, Arial-Unicode, Arial, Sans-serif">Created by Muhammad Naufal Subhiansyah</text><text x="0" y="36.933334" fill="#000000" font-size="5px" font-weight="bold" font-family="'Helvetica Neue', Helvetica, Arial-Unicode, Arial, Sans-serif">from the Noun Project</text></svg>